<?xml version="1.0" encoding="utf-8"?>
<!-- Generator: Adobe Illustrator 16.0.1, SVG Export Plug-In . SVG Version: 6.00 Build 0)  -->
<!DOCTYPE svg PUBLIC "-//W3C//DTD SVG 1.1//EN" "http://www.w3.org/Graphics/SVG/1.1/DTD/svg11.dtd">
<svg version="1.1" id="Layer_1" xmlns="http://www.w3.org/2000/svg" xmlns:xlink="http://www.w3.org/1999/xlink" x="0px" y="0px"
	 width="100px" height="97.884px" viewBox="0 0 100 97.884" enable-background="new 0 0 100 97.884" xml:space="preserve">
<g>
	<ellipse fill-rule="evenodd" clip-rule="evenodd" cx="50" cy="48.941" rx="50" ry="48.942"/>
	<path fill-rule="evenodd" clip-rule="evenodd" fill="#FFFFFF" d="M76.645,14.899c-1.484,0.113-2.97,0.227-4.455,0.34
		c1.127,0.756,2.255,1.514,3.381,2.271c1.484-0.112,2.97-0.226,4.455-0.339C78.897,16.414,77.77,15.657,76.645,14.899L76.645,14.899
		z M76.888,14.535c-0.455-1.417-0.912-2.835-1.369-4.251c1.126,0.756,2.252,1.515,3.379,2.272c0.457,1.416,0.916,2.833,1.372,4.25
		C79.143,16.051,78.016,15.292,76.888,14.535L76.888,14.535z M80.814,18.453c-1.486-0.103-2.971-0.203-4.457-0.304
		c1.006,0.912,2.014,1.822,3.021,2.731c1.486,0.102,2.971,0.203,4.457,0.304C82.827,20.274,81.82,19.363,80.814,18.453
		L80.814,18.453z M81.107,18.128c-0.25-1.469-0.497-2.937-0.745-4.405c1.004,0.913,2.013,1.823,3.02,2.735
		c0.248,1.466,0.496,2.935,0.744,4.402C83.121,19.949,82.113,19.039,81.107,18.128L81.107,18.128z M84.502,22.499
		c-1.456-0.311-2.911-0.625-4.366-0.936c0.865,1.046,1.732,2.091,2.598,3.137c1.456,0.313,2.912,0.625,4.367,0.936
		C86.235,24.589,85.37,23.545,84.502,22.499L84.502,22.499z M84.84,22.22c-0.036-1.488-0.073-2.975-0.108-4.465
		c0.866,1.045,1.732,2.09,2.598,3.136c0.037,1.49,0.072,2.977,0.111,4.465C86.574,24.312,85.705,23.265,84.84,22.22L84.84,22.22z
		 M87.657,26.979c-1.396-0.519-2.792-1.036-4.186-1.554c0.706,1.159,1.412,2.319,2.119,3.478c1.395,0.518,2.79,1.036,4.187,1.556
		C89.07,29.298,88.363,28.138,87.657,26.979L87.657,26.979z M88.032,26.751c0.178-1.477,0.356-2.957,0.535-4.434
		c0.706,1.16,1.414,2.317,2.119,3.479c-0.178,1.477-0.355,2.956-0.534,4.434C89.443,29.07,88.738,27.91,88.032,26.751L88.032,26.751
		z M90.179,31.817c-1.339-0.652-2.678-1.306-4.015-1.958c0.589,1.224,1.179,2.445,1.77,3.667c1.339,0.653,2.677,1.306,4.016,1.958
		C91.359,34.26,90.769,33.039,90.179,31.817L90.179,31.817z M90.573,31.625c0.322-1.452,0.644-2.907,0.966-4.359
		c0.59,1.222,1.179,2.445,1.77,3.667c-0.32,1.456-0.642,2.909-0.963,4.362C91.754,34.07,91.164,32.847,90.573,31.625L90.573,31.625z
		 M92.082,36.954c-1.229-0.843-2.456-1.686-3.683-2.527c0.404,1.295,0.807,2.592,1.21,3.889c1.228,0.844,2.454,1.686,3.683,2.527
		C92.889,39.546,92.485,38.251,92.082,36.954L92.082,36.954z M92.501,36.824c0.533-1.39,1.064-2.78,1.597-4.171
		c0.404,1.297,0.806,2.593,1.21,3.89c-0.533,1.391-1.066,2.781-1.598,4.17C93.305,39.417,92.904,38.12,92.501,36.824L92.501,36.824z
		 M93.301,42.272c-1.136-0.961-2.275-1.923-3.411-2.884c0.271,1.33,0.542,2.659,0.814,3.99c1.136,0.962,2.274,1.922,3.411,2.884
		C93.844,44.933,93.572,43.602,93.301,42.272L93.301,42.272z M93.731,42.184c0.67-1.329,1.337-2.658,2.007-3.989
		c0.271,1.331,0.543,2.661,0.813,3.992c-0.667,1.328-1.336,2.659-2.007,3.988C94.274,44.844,94.002,43.514,93.731,42.184
		L93.731,42.184z M93.823,47.728c-0.977-1.123-1.956-2.244-2.934-3.365c0.066,1.355,0.135,2.711,0.201,4.067
		c0.979,1.122,1.958,2.245,2.937,3.367C93.96,50.44,93.893,49.084,93.823,47.728L93.823,47.728z M94.262,47.705
		c0.864-1.213,1.725-2.425,2.588-3.639c0.068,1.356,0.134,2.712,0.202,4.067c-0.862,1.214-1.725,2.427-2.588,3.642
		C94.398,50.417,94.33,49.062,94.262,47.705L94.262,47.705z M93.665,53.183c-0.859-1.215-1.718-2.432-2.577-3.647
		c-0.072,1.355-0.142,2.711-0.213,4.067c0.859,1.215,1.72,2.43,2.58,3.646C93.525,55.893,93.596,54.537,93.665,53.183L93.665,53.183
		z M94.104,53.205c0.98-1.12,1.961-2.24,2.944-3.36c-0.07,1.355-0.141,2.712-0.212,4.069c-0.982,1.119-1.961,2.24-2.943,3.358
		C93.963,55.915,94.032,54.559,94.104,53.205L94.104,53.205z M92.8,58.594c-0.666-1.332-1.333-2.663-2-3.994
		c-0.274,1.33-0.547,2.66-0.822,3.99c0.667,1.332,1.333,2.661,2,3.992C92.253,61.254,92.526,59.925,92.8,58.594L92.8,58.594z
		 M93.231,58.682c1.137-0.959,2.275-1.918,3.414-2.877c-0.274,1.331-0.546,2.659-0.822,3.99c-1.139,0.959-2.278,1.917-3.416,2.877
		C92.682,61.342,92.956,60.012,93.231,58.682L93.231,58.682z M91.261,63.853c-0.462-1.415-0.923-2.83-1.386-4.246
		c-0.469,1.276-0.936,2.549-1.405,3.823c0.461,1.416,0.924,2.832,1.384,4.247C90.324,66.402,90.793,65.129,91.261,63.853
		L91.261,63.853z M91.672,64.004c1.268-0.779,2.537-1.559,3.805-2.336c-0.469,1.272-0.938,2.549-1.405,3.823
		c-1.269,0.779-2.538,1.558-3.806,2.337C90.734,66.554,91.203,65.279,91.672,64.004L91.672,64.004z M89.045,68.838
		c-0.32-1.453-0.641-2.907-0.96-4.361c-0.593,1.223-1.184,2.444-1.773,3.667c0.32,1.455,0.641,2.908,0.962,4.361
		C87.864,71.283,88.456,70.061,89.045,68.838L89.045,68.838z M89.441,69.029c1.34-0.652,2.678-1.302,4.017-1.953
		c-0.591,1.222-1.183,2.444-1.773,3.667c-1.339,0.651-2.678,1.302-4.017,1.954C88.259,71.473,88.85,70.251,89.441,69.029
		L89.441,69.029z M86.211,73.524c-0.109-1.485-0.215-2.969-0.322-4.455c-0.762,1.125-1.524,2.248-2.285,3.374
		c0.106,1.484,0.213,2.97,0.321,4.455C84.688,75.773,85.448,74.648,86.211,73.524L86.211,73.524z M86.574,73.77
		c1.417-0.45,2.837-0.901,4.255-1.352c-0.76,1.124-1.521,2.247-2.284,3.371c-1.417,0.452-2.837,0.903-4.255,1.353
		C85.051,76.019,85.812,74.896,86.574,73.77L86.574,73.77z M82.821,77.797c0.034-1.488,0.07-2.978,0.105-4.464
		c-0.866,1.046-1.731,2.092-2.596,3.136c-0.036,1.489-0.07,2.979-0.106,4.466C81.089,79.889,81.955,78.844,82.821,77.797
		L82.821,77.797z M83.159,78.077c1.454-0.312,2.911-0.627,4.366-0.939c-0.866,1.046-1.732,2.093-2.598,3.139
		c-1.455,0.312-2.911,0.625-4.365,0.938C81.427,80.168,82.292,79.122,83.159,78.077L83.159,78.077z M78.884,81.607
		c0.25-1.468,0.497-2.936,0.745-4.404c-1.007,0.913-2.013,1.822-3.018,2.733c-0.249,1.469-0.498,2.937-0.744,4.405
		C76.872,83.43,77.879,82.52,78.884,81.607L78.884,81.607z M79.179,81.933c1.486-0.102,2.97-0.204,4.457-0.305
		c-1.007,0.913-2.013,1.823-3.021,2.734c-1.483,0.103-2.969,0.204-4.454,0.306C77.166,83.754,78.173,82.844,79.179,81.933
		L79.179,81.933z M74.503,84.894c0.455-1.417,0.913-2.835,1.368-4.251c-1.127,0.757-2.253,1.515-3.381,2.274
		c-0.456,1.417-0.911,2.833-1.368,4.251C72.251,86.408,73.376,85.651,74.503,84.894L74.503,84.894z M74.749,85.257
		c1.484,0.113,2.969,0.226,4.453,0.337c-1.125,0.759-2.253,1.516-3.379,2.273c-1.485-0.113-2.97-0.226-4.453-0.337
		C72.496,86.773,73.622,86.014,74.749,85.257L74.749,85.257z M69.761,87.59c0.592-1.369,1.184-2.734,1.773-4.1
		c-1.194,0.645-2.389,1.291-3.583,1.935c-0.591,1.366-1.182,2.731-1.774,4.098C67.372,88.879,68.566,88.233,69.761,87.59
		L69.761,87.59z M69.969,87.975c1.469,0.255,2.934,0.51,4.401,0.768c-1.194,0.645-2.389,1.29-3.585,1.934
		c-1.466-0.255-2.931-0.512-4.398-0.767C67.581,89.265,68.777,88.619,69.969,87.975L69.969,87.975z M64.683,89.646
		c0.785-1.265,1.571-2.531,2.354-3.795c-1.275,0.462-2.551,0.927-3.828,1.388c-0.785,1.265-1.57,2.529-2.356,3.795
		C62.13,90.572,63.408,90.109,64.683,89.646L64.683,89.646z M64.832,90.058c1.416,0.468,2.827,0.937,4.241,1.404
		c-1.277,0.463-2.553,0.926-3.829,1.39c-1.413-0.469-2.827-0.936-4.239-1.406C62.279,90.983,63.556,90.521,64.832,90.058
		L64.832,90.058z M72.06,13.427L69.07,9.904l4.496,1.071l2.989,3.525L72.06,13.427L72.06,13.427z M58.215,6.095
		c3.661,0.627,7.165,1.708,10.454,3.182L68.24,9.917c-3.159-1.405-6.519-2.442-10.025-3.053V6.095L58.215,6.095z M58.215,9.292
		c4.928,0.911,9.542,2.712,13.674,5.231l-0.424,0.627c-4.007-2.438-8.478-4.188-13.25-5.089V9.292L58.215,9.292z M58.215,3.251
		c6.156,0.986,11.908,3.181,17.007,6.332l-0.426,0.628c-4.974-3.069-10.581-5.214-16.582-6.193V3.251L58.215,3.251z"/>
	<path fill-rule="evenodd" clip-rule="evenodd" fill="#FFFFFF" d="M23.733,14.899c1.484,0.113,2.969,0.227,4.454,0.34
		c-1.127,0.756-2.255,1.514-3.381,2.271c-1.483-0.112-2.969-0.226-4.454-0.339C21.479,16.414,22.605,15.657,23.733,14.899
		L23.733,14.899z M23.487,14.535c0.458-1.417,0.914-2.835,1.37-4.251c-1.126,0.756-2.255,1.515-3.381,2.272
		c-0.458,1.416-0.913,2.833-1.37,4.25C21.234,16.051,22.36,15.292,23.487,14.535L23.487,14.535z M19.563,18.453
		c1.486-0.103,2.971-0.203,4.456-0.304c-1.006,0.912-2.013,1.822-3.02,2.731c-1.485,0.102-2.971,0.203-4.456,0.304
		C17.549,20.274,18.556,19.363,19.563,18.453L19.563,18.453z M19.27,18.128c0.248-1.469,0.498-2.937,0.745-4.405
		c-1.006,0.913-2.013,1.823-3.02,2.735c-0.249,1.466-0.499,2.935-0.747,4.402C17.256,19.949,18.261,19.039,19.27,18.128
		L19.27,18.128z M15.874,22.499c1.455-0.311,2.911-0.625,4.367-0.936c-0.866,1.046-1.731,2.091-2.598,3.137
		c-1.457,0.313-2.911,0.625-4.368,0.936C14.141,24.589,15.007,23.545,15.874,22.499L15.874,22.499z M15.535,22.22
		c0.036-1.488,0.074-2.975,0.11-4.465c-0.867,1.045-1.733,2.09-2.599,3.136c-0.036,1.49-0.072,2.977-0.109,4.465
		C13.803,24.312,14.669,23.265,15.535,22.22L15.535,22.22z M12.72,26.979c1.396-0.519,2.791-1.036,4.186-1.554
		c-0.706,1.159-1.414,2.319-2.121,3.478c-1.395,0.518-2.789,1.036-4.185,1.556C11.305,29.298,12.012,28.138,12.72,26.979
		L12.72,26.979z M12.345,26.751c-0.178-1.477-0.356-2.957-0.535-4.434c-0.707,1.16-1.413,2.317-2.119,3.479
		c0.177,1.477,0.356,2.956,0.535,4.434C10.931,29.07,11.639,27.91,12.345,26.751L12.345,26.751z M10.198,31.817
		c1.339-0.652,2.676-1.306,4.016-1.958c-0.59,1.224-1.182,2.445-1.771,3.667c-1.339,0.653-2.676,1.306-4.016,1.958
		C9.018,34.26,9.608,33.039,10.198,31.817L10.198,31.817z M9.804,31.625c-0.322-1.452-0.644-2.907-0.966-4.359
		c-0.59,1.222-1.181,2.445-1.771,3.667c0.322,1.456,0.644,2.909,0.964,4.362C8.622,34.07,9.212,32.847,9.804,31.625L9.804,31.625z
		 M8.294,36.954c1.228-0.843,2.455-1.686,3.682-2.527c-0.403,1.295-0.806,2.592-1.21,3.889c-1.226,0.844-2.453,1.686-3.683,2.527
		C7.488,39.546,7.892,38.251,8.294,36.954L8.294,36.954z M7.876,36.824c-0.532-1.39-1.065-2.78-1.597-4.171
		c-0.404,1.297-0.807,2.593-1.211,3.89c0.532,1.391,1.065,2.781,1.597,4.17C7.07,39.417,7.473,38.12,7.876,36.824L7.876,36.824z
		 M7.076,42.272c1.137-0.961,2.274-1.923,3.41-2.884c-0.27,1.33-0.543,2.659-0.815,3.99c-1.137,0.962-2.273,1.922-3.41,2.884
		C6.531,44.933,6.805,43.602,7.076,42.272L7.076,42.272z M6.646,42.184c-0.669-1.329-1.339-2.658-2.007-3.989
		c-0.271,1.331-0.544,2.661-0.815,3.992c0.668,1.328,1.337,2.659,2.007,3.988C6.103,44.844,6.374,43.514,6.646,42.184L6.646,42.184z
		 M6.551,47.728c0.98-1.123,1.957-2.244,2.936-3.365c-0.067,1.355-0.133,2.711-0.202,4.067c-0.978,1.122-1.957,2.245-2.934,3.367
		C6.417,50.44,6.485,49.084,6.551,47.728L6.551,47.728z M6.115,47.705c-0.864-1.213-1.725-2.425-2.589-3.639
		c-0.066,1.356-0.134,2.712-0.201,4.067c0.862,1.214,1.724,2.427,2.586,3.642C5.979,50.417,6.046,49.062,6.115,47.705L6.115,47.705z
		 M6.71,53.183c0.859-1.215,1.719-2.432,2.579-3.647C9.36,50.892,9.43,52.248,9.5,53.603c-0.859,1.215-1.719,2.43-2.579,3.646
		C6.852,55.893,6.781,54.537,6.71,53.183L6.71,53.183z M6.273,53.205c-0.982-1.12-1.962-2.24-2.944-3.36
		c0.071,1.355,0.14,2.712,0.21,4.069c0.982,1.119,1.962,2.24,2.944,3.358C6.413,55.915,6.342,54.559,6.273,53.205L6.273,53.205z
		 M7.577,58.594c0.667-1.332,1.333-2.663,2-3.994c0.273,1.33,0.547,2.66,0.821,3.99c-0.667,1.332-1.334,2.661-2.001,3.992
		C8.125,61.254,7.851,59.925,7.577,58.594L7.577,58.594z M7.147,58.682c-1.139-0.959-2.277-1.918-3.417-2.877
		c0.273,1.331,0.549,2.659,0.822,3.99c1.139,0.959,2.278,1.917,3.416,2.877C7.695,61.342,7.421,60.012,7.147,58.682L7.147,58.682z
		 M9.115,63.853c0.463-1.415,0.924-2.83,1.386-4.246c0.47,1.276,0.936,2.549,1.405,3.823c-0.461,1.416-0.921,2.832-1.385,4.247
		C10.053,66.402,9.583,65.129,9.115,63.853L9.115,63.853z M8.705,64.004c-1.268-0.779-2.537-1.559-3.805-2.336
		c0.468,1.272,0.937,2.549,1.405,3.823c1.268,0.779,2.536,1.558,3.805,2.337C9.64,66.554,9.173,65.279,8.705,64.004L8.705,64.004z
		 M11.329,68.838c0.322-1.453,0.643-2.907,0.963-4.361c0.59,1.223,1.182,2.444,1.774,3.667c-0.323,1.455-0.643,2.908-0.963,4.361
		C12.511,71.283,11.92,70.061,11.329,68.838L11.329,68.838z M10.936,69.029c-1.339-0.652-2.678-1.302-4.016-1.953
		c0.59,1.222,1.182,2.444,1.772,3.667c1.338,0.651,2.677,1.302,4.016,1.954C12.117,71.473,11.526,70.251,10.936,69.029
		L10.936,69.029z M14.167,73.524c0.107-1.485,0.214-2.969,0.322-4.455c0.762,1.125,1.523,2.248,2.284,3.374
		c-0.107,1.484-0.214,2.97-0.323,4.455C15.688,75.773,14.928,74.648,14.167,73.524L14.167,73.524z M13.803,73.77
		c-1.418-0.45-2.836-0.901-4.256-1.352c0.762,1.124,1.523,2.247,2.286,3.371c1.416,0.452,2.837,0.903,4.255,1.353
		C15.326,76.019,14.564,74.896,13.803,73.77L13.803,73.77z M17.557,77.797c-0.036-1.488-0.072-2.978-0.108-4.464
		c0.867,1.046,1.732,2.092,2.598,3.136c0.036,1.489,0.072,2.979,0.107,4.466C19.286,79.889,18.421,78.844,17.557,77.797
		L17.557,77.797z M17.218,78.077c-1.456-0.312-2.912-0.627-4.367-0.939c0.866,1.046,1.732,2.093,2.598,3.139
		c1.455,0.312,2.912,0.625,4.365,0.938C18.95,80.168,18.083,79.122,17.218,78.077L17.218,78.077z M21.492,81.607
		c-0.248-1.468-0.496-2.936-0.745-4.404c1.006,0.913,2.013,1.822,3.019,2.733c0.249,1.469,0.497,2.937,0.744,4.405
		C23.503,83.43,22.497,82.52,21.492,81.607L21.492,81.607z M21.196,81.933c-1.485-0.102-2.97-0.204-4.455-0.305
		c1.006,0.913,2.013,1.823,3.02,2.734c1.484,0.103,2.969,0.204,4.454,0.306C23.21,83.754,22.203,82.844,21.196,81.933L21.196,81.933
		z M25.872,84.894c-0.455-1.417-0.91-2.835-1.367-4.251c1.128,0.757,2.253,1.515,3.38,2.274c0.456,1.417,0.912,2.833,1.369,4.251
		C28.125,86.408,26.999,85.651,25.872,84.894L25.872,84.894z M25.628,85.257c-1.485,0.113-2.97,0.226-4.454,0.337
		c1.126,0.759,2.253,1.516,3.379,2.273c1.485-0.113,2.97-0.226,4.454-0.337C27.881,86.773,26.754,86.014,25.628,85.257
		L25.628,85.257z M30.614,87.59c-0.59-1.369-1.182-2.734-1.773-4.1c1.195,0.645,2.389,1.291,3.584,1.935
		c0.591,1.366,1.184,2.731,1.772,4.098C33.004,88.879,31.809,88.233,30.614,87.59L30.614,87.59z M30.406,87.975
		c-1.465,0.255-2.933,0.51-4.399,0.768c1.195,0.645,2.39,1.29,3.584,1.934c1.467-0.255,2.931-0.512,4.398-0.767
		C32.795,89.265,31.601,88.619,30.406,87.975L30.406,87.975z M35.693,89.646c-0.785-1.265-1.57-2.531-2.355-3.795
		c1.276,0.462,2.553,0.927,3.829,1.388c0.786,1.265,1.569,2.529,2.355,3.795C38.247,90.572,36.97,90.109,35.693,89.646
		L35.693,89.646z M35.544,90.058c-1.412,0.468-2.828,0.937-4.239,1.404c1.275,0.463,2.551,0.926,3.829,1.39
		c1.413-0.469,2.826-0.936,4.24-1.406C38.097,90.983,36.82,90.521,35.544,90.058L35.544,90.058z M28.315,13.427l2.991-3.523
		l-4.495,1.071L23.822,14.5L28.315,13.427L28.315,13.427z M42.161,6.095C38.5,6.722,34.997,7.803,31.706,9.277l0.43,0.639
		c3.16-1.405,6.519-2.442,10.025-3.053V6.095L42.161,6.095z M42.161,9.292c-4.928,0.911-9.543,2.712-13.673,5.231l0.423,0.627
		c4.007-2.438,8.479-4.188,13.25-5.089V9.292L42.161,9.292z M42.161,3.251c-6.155,0.986-11.909,3.181-17.005,6.332l0.421,0.628
		c4.977-3.069,10.585-5.214,16.584-6.193V3.251L42.161,3.251z"/>
	<path fill="#FFFFFF" d="M62.938,93.227c-4.048,1.167-8.326,1.792-12.75,1.792s-8.701-0.626-12.75-1.792l2.273-0.754
		c0.403-0.133,0.674-0.481,0.73-0.875c0.207-0.337,0.22-0.775-0.002-1.135l-1.514-2.437c3.575,1.033,7.354,1.585,11.262,1.585
		s7.688-0.552,11.264-1.585l-1.515,2.437c-0.222,0.36-0.209,0.798-0.004,1.135c0.057,0.395,0.33,0.743,0.733,0.875L62.938,93.227
		L62.938,93.227z"/>
	<g>
		<path fill="#FFFFFF" d="M29.482,45.987v4.215h2.646v-7.875h-3.692c-1.22,0-2.091-1.011-2.091-2.054V31.04
			c0-1.219,0.836-2.09,2.091-2.09h4.738c1.185,0,2.09,0.871,2.09,2.055v5.121h-3.136v-4.041h-2.646v7.107h3.692
			c1.185,0,2.09,0.975,2.09,2.09v9.999c0,1.115-0.94,2.056-2.09,2.056h-4.738c-1.116,0-2.091-0.941-2.091-2.056v-5.294H29.482z"/>
		<path fill="#FFFFFF" d="M39.793,32.084h-2.787V28.95h8.71v3.135H42.93v21.252h-3.136V32.084z"/>
		<path fill="#FFFFFF" d="M53.241,48.564h-3.484l-0.488,4.773h-3.135l2.578-24.387h5.575l2.508,24.387h-3.065L53.241,48.564z
			 M50.106,45.429h2.788l-1.395-13.345L50.106,45.429z"/>
		<path fill="#FFFFFF" d="M58.746,53.337V28.95h7.838v3.135H61.88v6.724h3.311v3.136H61.88v11.392H58.746z"/>
		<path fill="#FFFFFF" d="M68.674,53.337V28.95h7.839v3.135h-4.704v6.724h3.311v3.136h-3.311v11.392H68.674z"/>
	</g>
	<g>
		<path fill="#FFFFFF" d="M32.372,55.049H39.2c1.183,0,2.089,0.975,2.089,2.09v9.162c0,1.116-0.94,2.057-2.089,2.057h-3.693v11.079
			h-3.135V68.358V55.049z M38.155,58.184h-2.648v7.037h2.648V58.184z"/>
		<path fill="#FFFFFF" d="M43.38,55.049h3.134v24.388H43.38V55.049z"/>
		<path fill="#FFFFFF" d="M55.086,62.365v-4.181h-2.647v18.117h2.647v-4.216h3.134v5.296c0,1.114-0.94,2.057-2.09,2.057h-4.737
			c-1.116,0-2.091-0.942-2.091-2.057V57.139c0-1.115,0.975-2.09,2.091-2.09h4.737c1.184,0,2.09,0.975,2.09,2.09v5.226H55.086z"/>
		<path fill="#FFFFFF" d="M63.656,55.049v9.163l2.44-9.163h3.309l-3.309,11.323l3.692,13.065h-3.241l-2.892-10.662v10.662h-3.137
			V55.049H63.656z"/>
	</g>
	<g>
		<path fill="#FFFFFF" d="M41.509,20.56c-0.031,0.692-0.514,1.642-1.45,2.845c-0.966,1.258-1.786,1.887-2.456,1.887
			c-0.414,0-0.764-0.382-1.053-1.148c-0.189-0.704-0.381-1.406-0.573-2.108c-0.213-0.765-0.441-1.147-0.686-1.147
			c-0.054,0-0.238,0.111-0.558,0.334l-0.335-0.431c0.351-0.309,0.698-0.617,1.039-0.927c0.469-0.405,0.82-0.618,1.053-0.639
			c0.554-0.054,0.896,0.325,1.023,1.136c0.138,0.874,0.234,1.418,0.288,1.631c0.159,0.726,0.335,1.087,0.526,1.087
			c0.149,0,0.372-0.235,0.671-0.706c0.297-0.471,0.458-0.828,0.479-1.075c0.043-0.406-0.117-0.609-0.479-0.609
			c-0.17,0-0.346,0.039-0.526,0.117c0.35-1.145,1.018-1.702,2.004-1.67C41.207,19.16,41.552,19.633,41.509,20.56z"/>
		<path fill="#FFFFFF" d="M45.9,22.804c-0.297,0.564-0.708,1.075-1.228,1.533c-0.714,0.616-1.428,0.924-2.141,0.924
			c-0.332,0-0.583-0.106-0.76-0.317c-0.176-0.215-0.257-0.49-0.248-0.831c0.011-0.352,0.12-0.894,0.328-1.628
			c0.207-0.734,0.312-1.13,0.312-1.182c0-0.276-0.097-0.414-0.288-0.414c-0.064,0-0.246,0.111-0.544,0.334l-0.368-0.431
			c0.342-0.309,0.682-0.617,1.024-0.927c0.458-0.405,0.798-0.618,1.022-0.639c0.35-0.033,0.608,0.071,0.773,0.31
			c0.165,0.238,0.227,0.55,0.184,0.933c-0.139,0.646-0.288,1.469-0.447,2.466c-0.011,0.457,0.155,0.684,0.496,0.684
			c0.148,0,0.414-0.157,0.797-0.472c0.32-0.262,0.581-0.509,0.784-0.741L45.9,22.804z M44.512,17.123
			c-0.011,0.265-0.145,0.52-0.4,0.762c-0.289,0.277-0.628,0.414-1.022,0.414c-0.607,0-0.9-0.266-0.879-0.794
			c0.01-0.275,0.173-0.541,0.487-0.794c0.315-0.255,0.663-0.382,1.047-0.382c0.224,0,0.41,0.087,0.559,0.262
			C44.453,16.766,44.521,16.943,44.512,17.123z"/>
		<path fill="#FFFFFF" d="M55.877,22.804c-0.298,0.564-0.708,1.075-1.23,1.533c-0.714,0.616-1.427,0.924-2.141,0.924
			c-0.692,0-1.027-0.382-1.006-1.148c0.01-0.342,0.077-0.75,0.199-1.229c0.122-0.479,0.189-0.853,0.199-1.118
			c0.012-0.403-0.111-0.606-0.369-0.606c-0.277,0-0.608,0.331-0.993,0.99c-0.406,0.692-0.625,1.362-0.658,2.013
			c-0.021,0.458,0.023,0.809,0.135,1.053c-0.744,0.022-1.265-0.102-1.561-0.367c-0.266-0.235-0.388-0.622-0.366-1.166
			c0.009-0.341,0.062-0.682,0.156-1.022c0.094-0.339,0.146-0.645,0.157-0.91c0.022-0.396-0.122-0.591-0.432-0.591
			c-0.267,0-0.555,0.303-0.863,0.911c-0.309,0.606-0.48,1.24-0.513,1.901c-0.02,0.595,0.017,1.011,0.115,1.245
			c-0.732,0.022-1.251-0.131-1.557-0.461c-0.255-0.275-0.372-0.696-0.351-1.258c0.011-0.276,0.059-0.661,0.146-1.154
			c0.089-0.495,0.137-0.88,0.148-1.156c0.02-0.192-0.028-0.287-0.144-0.287c-0.064,0-0.246,0.107-0.544,0.323l-0.383-0.431
			c0.053-0.043,0.388-0.352,1.007-0.927c0.446-0.415,0.75-0.627,0.911-0.638c0.276-0.022,0.499,0.093,0.67,0.344
			c0.171,0.249,0.256,0.54,0.256,0.869c0,0.106-0.011,0.208-0.032,0.304c0.16-0.244,0.347-0.457,0.559-0.639
			c0.491-0.427,1.039-0.667,1.646-0.72c0.521-0.042,0.895,0.081,1.119,0.367c0.18,0.234,0.265,0.57,0.255,1.007
			c0.075-0.063,0.155-0.132,0.241-0.208c0.243-0.288,0.483-0.517,0.717-0.687c0.395-0.288,0.804-0.447,1.23-0.479
			c0.511-0.042,0.879,0.078,1.103,0.366c0.192,0.234,0.277,0.568,0.255,1.003c-0.01,0.297-0.082,0.729-0.215,1.298
			c-0.133,0.567-0.2,0.894-0.2,0.978c-0.009,0.222,0.011,0.375,0.063,0.461c0.053,0.084,0.18,0.126,0.384,0.126
			c0.149,0,0.416-0.157,0.799-0.472c0.32-0.262,0.58-0.509,0.783-0.741L55.877,22.804z"/>
		<path fill="#FFFFFF" d="M61.868,22.788c-0.31,0.511-0.917,1.021-1.822,1.531c-1.129,0.649-2.273,0.973-3.435,0.973
			c-0.862,0-1.48-0.287-1.854-0.863c-0.266-0.394-0.394-0.862-0.383-1.404c0.011-0.862,0.395-1.683,1.15-2.461
			c0.831-0.851,1.812-1.277,2.939-1.277c1.044,0,1.598,0.425,1.662,1.274c0.042,0.543-0.255,1.1-0.895,1.673
			c-0.682,0.628-1.539,1.026-2.573,1.196c0.193,0.265,0.479,0.398,0.864,0.398c0.766,0,1.602-0.195,2.507-0.586
			c0.65-0.274,1.162-0.558,1.535-0.853L61.868,22.788z M58.242,21.118c0.01-0.285-0.107-0.427-0.352-0.427
			c-0.319,0-0.644,0.22-0.972,0.66c-0.331,0.439-0.5,0.86-0.511,1.263c-0.005,0-0.005,0.068,0,0.207
			c0.521-0.191,0.973-0.482,1.355-0.875C58.07,21.607,58.229,21.331,58.242,21.118z"/>
		<path fill="#FFFFFF" d="M66.204,21.716c-0.043,0.979-0.405,1.824-1.086,2.537c-0.682,0.713-1.529,1.068-2.54,1.068
			c-0.841,0-1.479-0.271-1.917-0.813c-0.32-0.403-0.494-0.909-0.526-1.516c-0.054-0.914,0.277-1.755,0.99-2.521
			c0.767-0.851,1.731-1.275,2.891-1.275c0.746,0,1.31,0.25,1.693,0.75C66.071,20.404,66.235,20.994,66.204,21.716z M64.398,21.657
			c0.011-0.289-0.029-0.553-0.12-0.793c-0.09-0.239-0.221-0.36-0.392-0.36c-0.543,0-0.99,0.293-1.341,0.88
			c-0.3,0.48-0.459,0.992-0.479,1.536c-0.012,0.268,0.037,0.502,0.143,0.705c0.118,0.235,0.282,0.353,0.495,0.353
			c0.479,0,0.89-0.282,1.231-0.848C64.223,22.66,64.377,22.168,64.398,21.657z"/>
	</g>
	<circle fill="#FFFFFF" cx="50.198" cy="6.571" r="4.283"/>
	<path fill="#231F20" d="M52.429,5.764c-0.021,0.456-0.338,1.08-0.955,1.872c-0.636,0.828-1.175,1.241-1.615,1.241
		c-0.272,0-0.503-0.252-0.692-0.756c-0.126-0.462-0.252-0.924-0.378-1.386c-0.14-0.503-0.291-0.756-0.451-0.756
		c-0.035,0-0.157,0.074-0.367,0.22l-0.22-0.284c0.229-0.203,0.458-0.406,0.682-0.609c0.309-0.266,0.54-0.406,0.694-0.42
		c0.364-0.036,0.588,0.214,0.673,0.747c0.091,0.576,0.153,0.934,0.188,1.074c0.105,0.477,0.221,0.715,0.346,0.715
		c0.099,0,0.246-0.155,0.442-0.464c0.197-0.31,0.301-0.546,0.316-0.708c0.027-0.267-0.078-0.401-0.316-0.401
		c-0.111,0-0.228,0.026-0.347,0.077c0.23-0.754,0.67-1.12,1.319-1.099C52.23,4.842,52.457,5.154,52.429,5.764z"/>
</g>
</svg>
